# xmcd
#
# Track frame offsets:
# 150
# 15512
# 28875
# 46392
# 63192
# 77010
# 88792
# 103291
# 117654
# 136626
# 150443
# 165321
#
# Disc length: 2431 seconds
#
#
# Revision: 0
# Processed by: cddbd v1.5.1PL2 Copyright (c) Steve Scherf et al.
# Submitted via: FreeRIP 2.944 
#
DISCID=8e097d0c
DTITLE=festival MIK 98 - Melodije Istre I Kvarnera - cd1
DYEAR=1998
DGENRE=Country
TTITLE0=Kan san ti bila
TTITLE1=Lipoto moja
TTITLE2=Pada daz
TTITLE3=Cize i guzice
TTITLE4=Ne zovi me vise
TTITLE5=800 metri
TTITLE6=Istrajanka
TTITLE7=Frutivendolo
TTITLE8=Ca san ja sad za nju
TTITLE9=Da si me onda otel
TTITLE10=Navigal san
TTITLE11=Budi tu
EXTD=
EXTT0=
EXTT1=
EXTT2=
EXTT3=
EXTT4=
EXTT5=
EXTT6=
EXTT7=
EXTT8=
EXTT9=
EXTT10=
EXTT11=
PLAYORDER=
